<svg xmlns="http://www.w3.org/2000/svg" viewBox="0 0 143.77 70"><defs><style>.cls-1{fill:#fff;}</style></defs><title>cp-logo</title><g id="Layer_2" data-name="Layer 2"><g id="Layer_2-2" data-name="Layer 2"><path class="cls-1" d="M25.72,38Q12.19,38,12.19,24.47a9.67,9.67,0,0,1,2-6.37,6.27,6.27,0,0,1,5.06-2.43,6.06,6.06,0,0,1,4.94,2,7.43,7.43,0,0,1,1.65,5,4.74,4.74,0,0,1-1.71,3.8,5.85,5.85,0,0,1-3.89,1.46,6.09,6.09,0,0,1-1.94-.34l-.92-.67c-.3.08-.51.45-.62,1.13a5.72,5.72,0,0,0-.05,1.8,6.78,6.78,0,0,0,3,4.9,11.53,11.53,0,0,0,6,1.41V38Z"/><path class="cls-1" d="M52,56.15q-24.54,0-24.53-24.53c0-4.78,1.2-8.62,3.6-11.55a11.38,11.38,0,0,1,9.18-4.4q6,0,9,3.54a13.53,13.53,0,0,1,3,9,8.59,8.59,0,0,1-3.11,6.88,10.6,10.6,0,0,1-7,2.64,11.67,11.67,0,0,1-3.52-.61l-1.66-1.22c-.55.14-.92.82-1.12,2a10.81,10.81,0,0,0-.11,3.27q1.23,6.33,5.52,8.89A20.92,20.92,0,0,0,52,52.68v3.48Z"/><path class="cls-1" d="M35,3.71A31.3,31.3,0,1,1,3.71,35,31.32,31.32,0,0,1,35,3.71M35,0A35,35,0,1,0,70,35,35,35,0,0,0,35,0"/><path class="cls-1" d="M88.63,20.86l-1,2A3.55,3.55,0,0,0,85,22.05a3.37,3.37,0,0,0-2.8,1.44,5.73,5.73,0,0,0-1.1,3.63,5.49,5.49,0,0,0,1,3.49,3.26,3.26,0,0,0,2.7,1.29,3.63,3.63,0,0,0,3-1.39l1.13,2a5.7,5.7,0,0,1-4.35,1.58,5.47,5.47,0,0,1-4.45-1.89A7.76,7.76,0,0,1,78.59,27a7.51,7.51,0,0,1,1.76-5.08,5.71,5.71,0,0,1,4.51-2.05,6.52,6.52,0,0,1,3.77,1"/><path class="cls-1" d="M98.68,33.82,95,28.17c-.37,0-.89,0-1.55-.07v5.72H91V20.12l1.58-.06c.91,0,1.65-.07,2.22-.07,3.47,0,5.21,1.34,5.21,4a3.61,3.61,0,0,1-.72,2.21,3.87,3.87,0,0,1-1.81,1.41l4,6.17Zm-5.2-11.58V26c.45,0,.79.06,1,.06a4.41,4.41,0,0,0,2.23-.43,1.8,1.8,0,0,0,.7-1.67,1.46,1.46,0,0,0-.75-1.41,5.34,5.34,0,0,0-2.39-.41,5.55,5.55,0,0,0-.82.06"/><path class="cls-1" d="M102,26.86a7.72,7.72,0,0,1,1.61-4.95,5.17,5.17,0,0,1,4.28-2,5.59,5.59,0,0,1,4.52,1.84A7.68,7.68,0,0,1,114,26.86a7.94,7.94,0,0,1-1.63,5.25,5.72,5.72,0,0,1-4.64,2,5,5,0,0,1-4.23-1.93A8.48,8.48,0,0,1,102,26.86m2.52,0a7.13,7.13,0,0,0,.82,3.72,2.61,2.61,0,0,0,2.36,1.32,3.23,3.23,0,0,0,2.78-1.29,6.21,6.21,0,0,0,1-3.75q0-4.82-3.55-4.81a2.83,2.83,0,0,0-2.5,1.3,6.25,6.25,0,0,0-.87,3.51"/><polygon class="cls-1" points="127.16 34.01 126.16 34.01 123.17 25.37 120.26 34.01 119.26 34.01 114.76 20.13 117.3 20.13 119.87 28.39 122.65 20.13 123.71 20.13 126.5 28.39 129.06 20.13 131.59 20.13 127.16 34.01"/><path class="cls-1" d="M136.08,33.82h-3V20.13c1.94-.06,3.16-.1,3.66-.1a6.39,6.39,0,0,1,4.74,1.75,6.29,6.29,0,0,1,1.76,4.65q0,7.4-7.12,7.39m-.61-11.56v9.35c.4,0,.82.05,1.27.05a3.43,3.43,0,0,0,2.89-1.34,5.9,5.9,0,0,0,1-3.74c0-2.92-1.36-4.39-4.08-4.39a11.18,11.18,0,0,0-1.12.07"/><path class="cls-1" d="M82.14,44.84v5H79.71V36.2c1.62-.07,2.57-.11,2.85-.11a8.71,8.71,0,0,1,4.74,1,3.46,3.46,0,0,1,1.5,3.11q0,4.71-5.55,4.71c-.28,0-.65,0-1.11-.07m0-6.54v4.38a8.52,8.52,0,0,0,1,.07,4.19,4.19,0,0,0,2.43-.56,2.08,2.08,0,0,0,.76-1.81c0-1.42-1.14-2.13-3.43-2.13a6.13,6.13,0,0,0-.74,0"/><path class="cls-1" d="M90.58,42.92a7.72,7.72,0,0,1,1.61-5,5.19,5.19,0,0,1,4.28-2A5.58,5.58,0,0,1,101,37.78a7.68,7.68,0,0,1,1.56,5.14,7.89,7.89,0,0,1-1.63,5.25,5.7,5.7,0,0,1-4.63,1.95,5,5,0,0,1-4.23-1.93,8.42,8.42,0,0,1-1.48-5.27m2.53,0a7.13,7.13,0,0,0,.81,3.72A2.61,2.61,0,0,0,96.29,48a3.26,3.26,0,0,0,2.78-1.29,6.29,6.29,0,0,0,1-3.75q0-4.81-3.56-4.81A2.81,2.81,0,0,0,94,39.41a6.16,6.16,0,0,0-.88,3.51"/><polygon class="cls-1" points="104.99 49.88 104.99 36.19 107.42 36.19 107.42 47.72 113.61 47.72 113.61 49.88 104.99 49.88"/><rect class="cls-1" x="115.91" y="36.19" width="2.43" height="13.7"/><path class="cls-1" d="M130.87,36.92l-1,2a3.58,3.58,0,0,0-2.61-.81,3.42,3.42,0,0,0-2.82,1.44,5.78,5.78,0,0,0-1.09,3.63,5.49,5.49,0,0,0,1,3.49,3.29,3.29,0,0,0,2.7,1.29,3.63,3.63,0,0,0,3-1.39l1.13,2a5.7,5.7,0,0,1-4.35,1.58,5.52,5.52,0,0,1-4.47-1.89,7.81,7.81,0,0,1-1.58-5.15A7.46,7.46,0,0,1,122.58,38a5.67,5.67,0,0,1,4.51-2,6.52,6.52,0,0,1,3.77,1"/><polygon class="cls-1" points="139.18 44.26 139.18 49.88 136.74 49.88 136.74 44.26 132.12 36.19 134.71 36.19 137.95 42.03 141.21 36.19 143.77 36.19 139.18 44.26"/></g></g></svg>